<svg xmlns="http://www.w3.org/2000/svg" xmlns:xlink="http://www.w3.org/1999/xlink" viewBox="0 0 500 500"><defs><style>.cls-1{isolation:isolate;}.cls-2{fill:url(#radial-gradient);}.cls-3{fill:url(#linear-gradient);}.cls-4{fill:url(#linear-gradient-2);}.cls-5{fill:url(#linear-gradient-3);}.cls-6{fill:url(#linear-gradient-4);}.cls-7{fill:url(#linear-gradient-5);}.cls-8{fill:url(#linear-gradient-6);}.cls-9{fill:url(#linear-gradient-7);}.cls-10{font-size:55.67px;fill:#382a57;font-family:Montserrat-Bold, Montserrat;font-weight:700;}.cls-11{letter-spacing:-0.05em;}.cls-12{letter-spacing:-0.05em;}.cls-13{letter-spacing:-0.01em;}.cls-14{mix-blend-mode:multiply;fill:url(#radial-gradient-2);}</style><radialGradient id="radial-gradient" cx="250" cy="250" r="445.49" gradientUnits="userSpaceOnUse"><stop offset="0" stop-color="#fff"/><stop offset="0.26" stop-color="#fbfbfb"/><stop offset="0.52" stop-color="#eee"/><stop offset="0.79" stop-color="#d9d9d9"/><stop offset="1" stop-color="#c4c4c4"/></radialGradient><linearGradient id="linear-gradient" x1="117.49" y1="342.89" x2="231.91" y2="93.92" gradientUnits="userSpaceOnUse"><stop offset="0" stop-color="#1277c5"/><stop offset="1" stop-color="#5ed376"/></linearGradient><linearGradient id="linear-gradient-2" x1="253.99" y1="410.37" x2="373.74" y2="149.8" xlink:href="#linear-gradient"/><linearGradient id="linear-gradient-3" x1="142.65" y1="359.2" x2="262.4" y2="98.63" xlink:href="#linear-gradient"/><linearGradient id="linear-gradient-4" x1="198.83" y1="385.02" x2="318.58" y2="124.45" xlink:href="#linear-gradient"/><linearGradient id="linear-gradient-5" x1="165.2" y1="364.65" x2="281.07" y2="112.52" xlink:href="#linear-gradient"/><linearGradient id="linear-gradient-6" x1="210.81" y1="383.32" x2="326.44" y2="131.71" xlink:href="#linear-gradient"/><linearGradient id="linear-gradient-7" x1="233.96" y1="306.18" x2="239.88" y2="153.91" xlink:href="#linear-gradient"/><radialGradient id="radial-gradient-2" cx="250" cy="-852.88" r="159.59" gradientTransform="translate(0 484.38) scale(1 0.09)" gradientUnits="userSpaceOnUse"><stop offset="0" stop-color="#c4c4c4"/><stop offset="0.21" stop-color="#d9d9d9"/><stop offset="0.48" stop-color="#eee"/><stop offset="0.74" stop-color="#fbfbfb"/><stop offset="1" stop-color="#fff"/></radialGradient></defs><g class="cls-1"><g id="Background"><rect class="cls-2" width="500" height="500"/></g><g id="Objects"><path class="cls-3" d="M199.4,246.77V199.58a11.19,11.19,0,0,0-11.2-11.2H158a11.2,11.2,0,0,0-11.21,11.2v54.81C161.32,253.9,179.44,251.24,199.4,246.77Z"/><path class="cls-4" d="M290.71,238.94v68.47h52.66V212.83A447.15,447.15,0,0,1,290.71,238.94Z"/><path class="cls-5" d="M189.54,282.08h9.86v-13a417.56,417.56,0,0,1-52.66,9.5v28.8H199.4V294.78Z"/><path class="cls-6" d="M250.46,254.22c-10.91,3.7-21.74,7-32.37,10v17.84h10.78L218.09,296v11.45h52.66V246.92Q260.82,250.69,250.46,254.22Z"/><path class="cls-7" d="M261.49,176.19l9.26-11.93v-3a10.44,10.44,0,0,0-10.44-10.44H228.53a10.44,10.44,0,0,0-10.44,10.44v80.9c12.49-3.31,25.45-7.21,38.52-11.66q7.26-2.46,14.14-5V176.19Z"/><path class="cls-8" d="M290.71,115.23v47.94l10.11,13H290.71v41.6a407.55,407.55,0,0,0,52.66-25.73V115.23a13.45,13.45,0,0,0-13.45-13.46H304.17A13.46,13.46,0,0,0,290.71,115.23Z"/><path class="cls-9" d="M395.07,146.81l-29,21,15,0c-11.2,18.79-60.37,46.51-122.75,67.71C183.46,260.94,118,267.36,112,249.85c-2.84-8.38,8.46-20.72,29.2-34.09V201C100,223.1,75.26,245.9,80.27,260.63c7.73,22.73,83.17,17.64,168.5-11.37,70-23.78,124.86-56.26,138.1-79.71l8.25,10.69Z"/><text class="cls-10" transform="translate(97.38 367.28)"><tspan class="cls-11">T</tspan><tspan x="31.34" y="0">ools</tspan><tspan class="cls-12" x="150.58" y="0">W</tspan><tspan x="212.27" y="0">a</tspan><tspan class="cls-13" x="246.61" y="0">r</tspan><tspan x="270.11" y="0">e</tspan></text><ellipse class="cls-14" cx="250" cy="408.99" rx="159.59" ry="14.11"/></g></g></svg>