<svg xmlns="http://www.w3.org/2000/svg" xmlns:xlink="http://www.w3.org/1999/xlink" viewBox="0 0 600 450"><defs><style>.cls-1{isolation:isolate;}.cls-2{opacity:0.11;}.cls-3{fill:url(#Áåçûìÿííûé_ãðàäèåíò_143);}.cls-4{fill:url(#Áåçûìÿííûé_ãðàäèåíò_143-2);}.cls-5{fill:url(#Áåçûìÿííûé_ãðàäèåíò_143-4);}.cls-6,.cls-7,.cls-9{opacity:0.5;}.cls-6{fill:url(#Áåçûìÿííûé_ãðàäèåíò_143-5);}.cls-10,.cls-30,.cls-8,.cls-9{fill:#42e8e0;}.cls-10{opacity:0.2;}.cls-11{fill:url(#Áåçûìÿííûé_ãðàäèåíò_16);}.cls-12{fill:url(#Áåçûìÿííûé_ãðàäèåíò_16-2);}.cls-13,.cls-22,.cls-27,.cls-29{mix-blend-mode:lighten;}.cls-14{fill:url(#Áåçûìÿííûé_ãðàäèåíò_12);}.cls-15{fill:#393091;}.cls-16{fill:#453c9e;}.cls-17{fill:url(#Áåçûìÿííûé_ãðàäèåíò_16-3);}.cls-18{fill:#bcbeff;}.cls-19{fill:url(#Áåçûìÿííûé_ãðàäèåíò_16-4);}.cls-20{fill:url(#Áåçûìÿííûé_ãðàäèåíò_12-2);}.cls-21{fill:url(#Áåçûìÿííûé_ãðàäèåíò_16-5);}.cls-22{fill:url(#Áåçûìÿííûé_ãðàäèåíò_12-3);}.cls-23{fill:#fff;}.cls-24{fill:url(#Áåçûìÿííûé_ãðàäèåíò_16-6);}.cls-25{fill:url(#Áåçûìÿííûé_ãðàäèåíò_12-4);}.cls-26{fill:url(#Áåçûìÿííûé_ãðàäèåíò_16-7);}.cls-27{fill:url(#Áåçûìÿííûé_ãðàäèåíò_12-5);}.cls-28{fill:url(#Áåçûìÿííûé_ãðàäèåíò_16-8);}.cls-29{fill:url(#Áåçûìÿííûé_ãðàäèåíò_12-6);}.cls-30{opacity:0.5;}</style><linearGradient id="Áåçûìÿííûé_ãðàäèåíò_143" x1="87.53" y1="311.2" x2="329.4" y2="311.2" gradientTransform="matrix(-1, 0, 0, 1, 519.67, 0)" gradientUnits="userSpaceOnUse"><stop offset="0" stop-color="#5761d7"/><stop offset="0.07" stop-color="#5472d8"/><stop offset="0.28" stop-color="#4e9cdb"/><stop offset="0.48" stop-color="#49bddd"/><stop offset="0.67" stop-color="#45d5df"/><stop offset="0.85" stop-color="#43e3e0"/><stop offset="1" stop-color="#42e8e0"/></linearGradient><linearGradient id="Áåçûìÿííûé_ãðàäèåíò_143-2" x1="87.53" y1="292.6" x2="329.4" y2="292.6" xlink:href="#Áåçûìÿííûé_ãðàäèåíò_143"/><linearGradient id="Áåçûìÿííûé_ãðàäèåíò_143-4" x1="87.53" y1="326.13" x2="329.4" y2="326.13" xlink:href="#Áåçûìÿííûé_ãðàäèåíò_143"/><linearGradient id="Áåçûìÿííûé_ãðàäèåíò_143-5" x1="87.53" y1="311.23" x2="329.4" y2="311.23" xlink:href="#Áåçûìÿííûé_ãðàäèåíò_143"/><radialGradient id="Áåçûìÿííûé_ãðàäèåíò_16" cx="-80.11" cy="-180.39" r="96.27" gradientTransform="translate(389.44 349.04) rotate(12.03)" gradientUnits="userSpaceOnUse"><stop offset="0" stop-color="#c0bff6"/><stop offset="1" stop-color="#393091"/></radialGradient><radialGradient id="Áåçûìÿííûé_ãðàäèåíò_16-2" cx="923.88" cy="327.7" r="95.11" gradientTransform="translate(-382.26 -123.18) scale(0.78 1.06)" xlink:href="#Áåçûìÿííûé_ãðàäèåíò_16"/><linearGradient id="Áåçûìÿííûé_ãðàäèåíò_12" x1="891.23" y1="391.34" x2="891.23" y2="296.27" gradientTransform="translate(-382.26 -123.18) scale(0.78 1.06)" gradientUnits="userSpaceOnUse"><stop offset="0" stop-color="#42e8e0"/><stop offset="0" stop-color="#42e6df"/><stop offset="0.14" stop-color="#40b6cb"/><stop offset="0.27" stop-color="#3e8db9"/><stop offset="0.41" stop-color="#3c6baa"/><stop offset="0.55" stop-color="#3b519f"/><stop offset="0.69" stop-color="#3a3f97"/><stop offset="0.84" stop-color="#393493"/><stop offset="1" stop-color="#393091"/></linearGradient><radialGradient id="Áåçûìÿííûé_ãðàäèåíò_16-3" cx="267.85" cy="99.37" r="52.11" gradientTransform="matrix(1, 0, 0, 1, 0, 0)" xlink:href="#Áåçûìÿííûé_ãðàäèåíò_16"/><radialGradient id="Áåçûìÿííûé_ãðàäèåíò_16-4" cx="340.32" cy="161.03" r="74.23" gradientTransform="matrix(1, 0, 0, 1, 0, 0)" xlink:href="#Áåçûìÿííûé_ãðàäèåíò_16"/><linearGradient id="Áåçûìÿííûé_ãðàäèåíò_12-2" x1="306.8" y1="211.03" x2="319.03" y2="124.04" gradientTransform="matrix(1, 0, 0, 1, 0, 0)" xlink:href="#Áåçûìÿííûé_ãðàäèåíò_12"/><radialGradient id="Áåçûìÿííûé_ãðàäèåíò_16-5" cx="339.73" cy="160.24" r="35.25" gradientTransform="matrix(1, 0, 0, 1, 0, 0)" xlink:href="#Áåçûìÿííûé_ãðàäèåíò_16"/><linearGradient id="Áåçûìÿííûé_ãðàäèåíò_12-3" x1="332.63" y1="195.47" x2="345.02" y2="161.44" gradientTransform="matrix(1, 0, 0, 1, 0, 0)" xlink:href="#Áåçûìÿííûé_ãðàäèåíò_12"/><radialGradient id="Áåçûìÿííûé_ãðàäèåíò_16-6" cx="-46.09" cy="-122.71" r="34.79" gradientTransform="translate(391.47 347.27) rotate(11.2)" xlink:href="#Áåçûìÿííûé_ãðàäèåíò_16"/><linearGradient id="Áåçûìÿííûé_ãðàäèåíò_12-4" x1="-65" y1="-97.87" x2="-42.34" y2="-122.35" gradientTransform="translate(391.47 347.27) rotate(11.2)" xlink:href="#Áåçûìÿííûé_ãðàäèåíò_12"/><radialGradient id="Áåçûìÿííûé_ãðàäèåíò_16-7" cx="264.84" cy="-1657.74" r="32.23" gradientTransform="matrix(0.91, 0.11, -0.18, 1.5, -147.08, 2730.38)" xlink:href="#Áåçûìÿííûé_ãðàäèåíò_16"/><linearGradient id="Áåçûìÿííûé_ãðàäèåíò_12-5" x1="226.97" y1="355.72" x2="252.15" y2="355.72" gradientTransform="matrix(0.91, 0.11, -0.14, 1.14, 204.87, -144.2)" xlink:href="#Áåçûìÿííûé_ãðàäèåíò_12"/><radialGradient id="Áåçûìÿííûé_ãðàäèåíò_16-8" cx="-1940.94" cy="-1898.64" r="32.23" gradientTransform="matrix(0.44, 0.8, -1.33, 0.73, -1415.47, 3164.73)" xlink:href="#Áåçûìÿííûé_ãðàäèåíò_16"/><linearGradient id="Áåçûìÿííûé_ãðàäèåíò_12-6" x1="-2686.65" y1="-167.56" x2="-2701.74" y2="-147.4" gradientTransform="matrix(0.44, 0.8, -1.01, 0.55, 1247.89, 2489.13)" xlink:href="#Áåçûìÿííûé_ãðàäèåíò_12"/></defs><g class="cls-1"><g id="Ñëîé_1" data-name="Ñëîé 1"><g class="cls-2"><path class="cls-3" d="M301.86,245.13a18.53,18.53,0,0,1,18.53,0l110.45,63.62a2.6,2.6,0,0,1,0,4.51l-111.37,64.3a16.37,16.37,0,0,1-16.36,0L191.57,313.32a2.61,2.61,0,0,1,0-4.51Z"/></g><g class="cls-2"><path class="cls-4" d="M301.86,226.53a18.53,18.53,0,0,1,18.53,0l110.45,63.62a2.61,2.61,0,0,1,0,4.52L319.47,359a16.37,16.37,0,0,1-16.36,0L191.57,294.72a2.62,2.62,0,0,1,0-4.52Z"/></g><g class="cls-2"><path class="cls-4" d="M301.86,226.53a18.53,18.53,0,0,1,18.53,0l110.45,63.62a2.61,2.61,0,0,1,0,4.52L319.47,359a16.37,16.37,0,0,1-16.36,0L191.57,294.72a2.62,2.62,0,0,1,0-4.52Z"/></g><path class="cls-5" d="M191.57,292.15l111.54,64.24a16.37,16.37,0,0,0,16.36,0l111.37-64.3a2.6,2.6,0,0,0,1-1,2.62,2.62,0,0,1-1,3.55L319.47,359a16.37,16.37,0,0,1-16.36,0L191.57,294.72a2.61,2.61,0,0,1-1-3.55A2.5,2.5,0,0,0,191.57,292.15Z"/><path class="cls-6" d="M191.57,290.2l110.29-63.67a18.53,18.53,0,0,1,18.53,0l110.45,63.62a2.58,2.58,0,0,1,1.3,2.26v37.28a2.57,2.57,0,0,1-1.3,2.25l-111.37,64.3a16.37,16.37,0,0,1-16.36,0L191.57,332a2.57,2.57,0,0,1-1.3-2.25V292.46h0A2.58,2.58,0,0,1,191.57,290.2Z"/><g class="cls-7"><path class="cls-8" d="M424.69,151.36c2.68.69,5.32,1.41,7.9,2.17v19.1c-2.58-.76-5.22-1.48-7.9-2.18V151.36Z"/><path class="cls-9" d="M406.39,152.15c2.86.55,5.69,1.14,8.47,1.75v14.2c-2.78-.62-5.61-1.2-8.47-1.75v-14.2Z"/><path class="cls-8" d="M386.93,136.6q4.54.6,9,1.29v26.64q-4.44-.71-9-1.29V136.6Z"/><path class="cls-9" d="M366.47,119.82c3.17.23,6.31.49,9.41.8V162c-3.1-.31-6.24-.57-9.41-.8V119.82Z"/><path class="cls-9" d="M345.13,128.7q5,.08,9.81.27v31.56c-3.24-.13-6.51-.23-9.81-.28V128.7Z"/><path class="cls-8" d="M323.6,95.67c3.21-.13,6.46-.22,9.72-.27v64.85c-3.26.05-6.51.14-9.72.27V95.67Z"/><path class="cls-8" d="M302.77,109q4.65-.45,9.37-.79v52.93c-3.15.22-6.27.49-9.37.79V109Z"/><path class="cls-8" d="M282.82,91.74q4.43-.69,8.95-1.27v72.72q-4.53.59-8.95,1.28V91.74Z"/></g><ellipse class="cls-10" cx="311.21" cy="291.33" rx="70.29" ry="40.58"/><ellipse class="cls-8" cx="311.21" cy="291.33" rx="39.88" ry="23.02"/><rect class="cls-8" x="366.11" y="227.16" width="5.37" height="45.82" transform="translate(-66.88 156.63) rotate(-22.04)"/><circle class="cls-11" cx="268.14" cy="208.04" r="16.68" transform="translate(-2.98 3.9) rotate(-0.83)"/><path class="cls-12" d="M354.27,232.71c0,32.37-19.28,58.62-43.06,58.62s-43.07-26.25-43.07-58.62,19.28-42.08,43.07-42.08S354.27,200.33,354.27,232.71Z"/><g class="cls-13"><path class="cls-14" d="M354.27,232.71c0,32.37-19.28,58.62-43.06,58.62s-43.07-26.25-43.07-58.62,19.28-42.08,43.07-42.08S354.27,200.33,354.27,232.71Z"/></g><ellipse class="cls-15" cx="311.21" cy="208.04" rx="29.39" ry="16.97"/><path class="cls-16" d="M290.42,200.56c11.48-6.63,30.09-6.63,41.57,0,4.74,2.74,7.51,6.18,8.34,9.74,1.17-5.06-1.61-10.37-8.34-14.26-11.48-6.63-30.09-6.63-41.57,0-6.73,3.89-9.51,9.2-8.34,14.26C282.91,206.74,285.68,203.3,290.42,200.56Z"/><path class="cls-17" d="M277.28,167.72l5.32-9.16a29.69,29.69,0,0,0,6.9-11.89l5.38-9.27L287.14,133a5,5,0,0,0-.78-.44h0c-2.2-1-5.12-.76-8.34,1.09-6.84,4-12.39,13.57-12.39,21.47,0,3.95,1.38,6.73,3.63,8h0Z"/><ellipse class="cls-18" cx="285.99" cy="152.5" rx="17.53" ry="10.12" transform="translate(10.92 323.92) rotate(-60)"/><circle class="cls-19" cx="312.91" cy="167.54" r="43.92"/><g class="cls-13"><circle class="cls-20" cx="312.91" cy="167.54" r="43.92"/></g><path class="cls-21" d="M337.49,197.24l5.32-9.16a29.68,29.68,0,0,0,6.89-11.88l5.39-9.28-7.75-4.45a6.41,6.41,0,0,0-.77-.44h0c-2.2-1.05-5.13-.77-8.34,1.09-6.84,3.95-12.39,13.56-12.39,21.47,0,3.95,1.38,6.72,3.62,8h0Z"/><path class="cls-22" d="M337.49,197.24l5.32-9.16a29.68,29.68,0,0,0,6.89-11.88l5.39-9.28-7.75-4.45a6.41,6.41,0,0,0-.77-.44h0c-2.2-1.05-5.13-.77-8.34,1.09-6.84,3.95-12.39,13.56-12.39,21.47,0,3.95,1.38,6.72,3.62,8h0Z"/><ellipse class="cls-18" cx="346.2" cy="182.03" rx="17.53" ry="10.12" transform="matrix(0.5, -0.87, 0.87, 0.5, 15.46, 390.82)"/><path class="cls-23" d="M334.37,189.28c0-7.9,5.55-17.51,12.4-21.47a10.52,10.52,0,0,1,6.47-1.63,10,10,0,0,0-7,1.53c-6.85,4-12.4,13.57-12.4,21.47,0,5.17,2.37,8.32,5.93,8.79C336.49,197.25,334.37,194.17,334.37,189.28Z"/><path class="cls-15" d="M355.06,176.91c0,5.65-4,12.52-8.86,15.35s-8.86.53-8.86-5.12,4-12.52,8.86-15.34S355.06,171.26,355.06,176.91Z"/><path class="cls-16" d="M351.29,170.72a7.3,7.3,0,0,1,1.45,4.77c0,5.65-4,12.52-8.86,15.34a7,7,0,0,1-5.09,1.08c1.58,1.87,4.31,2.14,7.41.35,4.89-2.83,8.86-9.7,8.86-15.35C355.06,173.45,353.57,171.25,351.29,170.72Z"/><ellipse class="cls-15" cx="286.68" cy="178.76" rx="11.15" ry="19.31" transform="translate(-46.68 123.9) rotate(-22.6)"/><path class="cls-8" d="M293.5,180.86c-.41,3.14-2.78,4.13-5.29,2.2a10.94,10.94,0,0,1-3.82-9.16c.41-3.14,2.78-4.12,5.29-2.2A10.94,10.94,0,0,1,293.5,180.86Z"/><path class="cls-16" d="M288,193.14c-6.91-5.29-11.61-16.58-10.49-25.22.46-3.52,1.81-6,3.72-7.46-3.61.34-6.35,3.4-7,8.72-1.13,8.64,3.57,19.93,10.49,25.22,4.1,3.13,8.06,3.46,10.84,1.41C293.23,196,290.63,195.17,288,193.14Z"/><path class="cls-8" d="M285.25,194.12c-6.92-5.29-11.62-16.58-10.5-25.22.52-4,2.2-6.72,4.54-8-2.65,1.09-4.57,3.92-5.13,8.25-1.13,8.64,3.57,19.93,10.49,25.22,3.72,2.84,7.31,3.37,10,1.91C292,197.4,288.7,196.76,285.25,194.12Z"/><path class="cls-24" d="M376.56,232.07a16.68,16.68,0,1,1-13.12-19.6A16.68,16.68,0,0,1,376.56,232.07Z"/><g class="cls-13"><path class="cls-25" d="M376.56,232.07a16.68,16.68,0,1,1-13.12-19.6A16.68,16.68,0,0,1,376.56,232.07Z"/></g><path class="cls-26" d="M386.8,284.09c-.94,7.92-7.94,22.93-14.28,22.18s-9.6-17-8.66-24.92,6.85-13.74,13.18-13S387.75,276.16,386.8,284.09Z"/><path class="cls-27" d="M386.8,284.09c-.94,7.92-7.94,22.93-14.28,22.18s-9.6-17-8.66-24.92,6.85-13.74,13.18-13S387.75,276.16,386.8,284.09Z"/><path class="cls-8" d="M224,233.1a2.68,2.68,0,0,1-1.24-5.06l34.43-18a2.68,2.68,0,0,1,2.49,4.75l-34.44,18A2.62,2.62,0,0,1,224,233.1Z"/><path class="cls-28" d="M224.62,243.1c-7,3.84-23.28,6.87-26.35,1.27s8.24-17.69,15.24-21.53,15.16-2.41,18.23,3.19S231.62,239.27,224.62,243.1Z"/><path class="cls-29" d="M224.62,243.1c-7,3.84-23.28,6.87-26.35,1.27s8.24-17.69,15.24-21.53,15.16-2.41,18.23,3.19S231.62,239.27,224.62,243.1Z"/><g class="cls-7"><path class="cls-30" d="M222.49,108.06c24.93-7.51,39.77,20.74,25.2,48-12.37,23.12-42.51,39.82-50.39,15.54-4.64-14.28-.8-49.29,22.79-62.5-6.35,3.29-11,7.94-15.6,15.55,8.7,10.7,9.41,11.58,16.92,20.22,8.9-21,9.62-22.73,16.2-36.94a21.41,21.41,0,0,0-15.12.15Zm-1.75.72-.57.27.57-.27Zm1.27-.54.41-.16-.41.16Zm-.6.25-.58.25.58-.25Zm0,0,.48-.2-.48.2Z"/><path class="cls-8" d="M180.32,134.85q2.19-2.29,4.69-4.51v72.73c-1.67,1.47-3.23,3-4.69,4.51V134.85Z"/><path class="cls-8" d="M172.85,169.9a55.78,55.78,0,0,1,3.42-4.81v47.15a57.37,57.37,0,0,0-3.42,4.81V169.9Z"/><path class="cls-30" d="M166.16,224.72l.08.16.09-4.77-.17-.26v4.87Zm0,14.06V166.06c0-.47,0-.94,0-1.4a37.82,37.82,0,0,1,1.71-9.8v72.72a37.82,37.82,0,0,0-1.71,9.8c0,.47,0,.94,0,1.4Z"/><polygon class="cls-8" points="166.16 224.72 166.24 224.88 166.33 220.11 166.16 219.85 166.16 224.72 166.16 224.72"/><path class="cls-8" d="M220.17,109.05l-.08,0,.08,0Zm2.25-1,.07,0-.07,0Zm-1.59.66-.09,0,.09,0Zm1.06-.45H222l-.12.05Z"/><path class="cls-8" d="M221.41,108.49a21.32,21.32,0,0,1,16.2-.58c-9.3,20.49-10.27,22.63-16.2,36.94-9.16-10.66-10.57-12.29-16.92-20.22,1.8-3,7.26-12.07,16.92-16.14Z"/><path class="cls-30" d="M279.11,287.38c-7.48,2.22-12.28-2.33-14-3.67-13.74-11.63-25.77-25.82-39.55-37.4-4.07-3.42-6.56-2-8-1.63-25.69,10.2-25.69,10.2-29.81,4-7.55-13.37-7.81-14.45-11.32-22.8-.8-1.91-3.51-4.8-4.72-4.65-5.77,1.63-5,2.81-5.54,3.51v-4.87c6.8-2.62,7.5-2.93,10.26,3.4,12.7,26.94,14.93,26.34,17.89,25.64,27-10.82,26.71-10,33.6-2.87,11.92,12.42,36,36.59,43.39,38.51a25.79,25.79,0,0,0,8.05-.57c26.1-8.75,36.46-14.24,62-25.25l2.29,3.71c-9.46,4.12-38,15.37-64.34,23.65Zm81.6,29.32V244c-8,.45-16.23.65-24.55.58-94.51-.74-170-35.76-170-78.5v72.72c0,42.74,75.49,77.76,170,78.51,8.32.06,16.52-.14,24.55-.59Z"/><path class="cls-8" d="M279.11,287.38c-6.73,1.72-13.09,3.35-52.67-39.24-5-5-5-5-30.72,5.21-2.92.71-7.33,1.78-19.49-27.21-3.75-8.57-10-1.5-10.07-1.42v-4.87a17.06,17.06,0,0,1,5.46-2.19,2.43,2.43,0,0,1,1.76.15c.86.44,1.72,1.45,3.22,4.64,7,14.92,7,14.92,12.05,23.08,3,4.41,3,4.41,27.1-5.17,1.65-.44,5.08-1.37,10.25,2.76,14.53,11.59,26.36,26.09,40.71,37.89,5.38,3.83,8.63,6.14,74.65-22.3l2.29,3.71c-9.46,4.12-38.23,16.67-64.54,25Z"/></g></g></g></svg>